# xmcd
#
# Track frame offsets:
#	180
#	10728
#	27447
#	42347
#	54084
#	74676
#	86571
#	98063
#	115599
#	133165
#	148405
#
# Disc length: 2049 seconds
#
# Revision: 0
# Processed by: cddbd v1.5.1PL0 Copyright (c) Steve Scherf et al.
# Submitted via: EasyCDDAExtractor 8.2.0.1
#
DISCID=9607ff0b
DTITLE=The Fuelers - Hot Dang
DYEAR=2000
DGENRE=Country
TTITLE0=Brown Bessy
TTITLE1=Quick way To Hell
TTITLE2=Good Ol' Boys
TTITLE3=Jack Knife
TTITLE4=Lonely Streets
TTITLE5=Thats Right
TTITLE6=Space
TTITLE7=The Walrus
TTITLE8=Time To Go
TTITLE9=Caravan Trash
TTITLE10=Burrito Grease
EXTD=
EXTT0=
EXTT1=
EXTT2=
EXTT3=
EXTT4=
EXTT5=
EXTT6=
EXTT7=
EXTT8=
EXTT9=
EXTT10=
PLAYORDER=
